<?xml version="1.0" standalone="no"?>
<!DOCTYPE svg PUBLIC "-//W3C//DTD SVG 20010904//EN"
 "http://www.w3.org/TR/2001/REC-SVG-20010904/DTD/svg10.dtd">
<svg version="1.0" xmlns="http://www.w3.org/2000/svg"
 width="512.000000pt" height="512.000000pt" viewBox="0 0 512.000000 512.000000"
 preserveAspectRatio="xMidYMid meet">

<g transform="translate(0.000000,512.000000) scale(0.100000,-0.100000)"
fill="#000000" stroke="none">
<path d="M2513 5100 c-28 -26 -36 -83 -31 -221 3 -107 4 -112 31 -135 16 -13
37 -24 47 -24 10 0 31 11 47 24 27 23 28 28 31 135 7 183 -12 241 -78 241 -14
0 -36 -9 -47 -20z"/>
<path d="M3835 4626 c-58 -26 -105 -101 -105 -168 0 -40 30 -106 59 -132 11
-10 43 -27 70 -36 l50 -17 -104 -103 -104 -103 -101 96 c-209 198 -469 336
-742 391 -115 24 -152 21 -177 -10 -12 -15 -21 -37 -21 -49 0 -27 52 -75 81
-75 36 0 173 -31 249 -57 109 -37 228 -96 328 -163 98 -66 275 -226 270 -245
-2 -7 -177 -189 -389 -405 l-386 -393 -119 85 c-66 47 -133 93 -151 102 -62
31 -149 16 -203 -36 -43 -42 -634 -708 -652 -736 -37 -56 -31 -150 13 -206 48
-61 151 -84 223 -49 23 11 125 117 291 304 140 158 262 292 269 299 12 9 41
-7 147 -81 123 -87 136 -93 189 -97 39 -3 68 1 91 12 19 9 222 206 458 447
233 236 427 427 431 422 15 -16 62 -160 85 -259 13 -56 28 -110 34 -122 22
-41 98 -35 121 9 26 48 -26 258 -115 463 l-17 39 125 125 125 125 11 -41 c46
-168 270 -186 342 -27 17 35 19 69 19 300 0 294 -5 317 -76 371 l-37 29 -276
2 c-215 2 -283 0 -306 -11z m543 -388 c2 -236 1 -248 -17 -258 -15 -7 -23 -6
-35 6 -13 12 -16 39 -16 122 0 118 -10 145 -55 156 -14 4 -33 2 -43 -3 -16 -9
-274 -268 -887 -891 -160 -162 -331 -337 -380 -387 -52 -55 -97 -93 -108 -93
-11 0 -87 47 -169 105 -82 58 -155 108 -163 112 -39 14 -72 -17 -351 -329
-158 -178 -296 -325 -307 -326 -18 -3 -36 12 -37 31 0 15 641 727 655 727 8 0
85 -49 171 -110 121 -85 164 -110 189 -110 29 0 78 47 541 518 766 778 788
802 797 825 11 29 -9 72 -39 86 -14 6 -72 11 -129 11 -95 0 -104 2 -110 20 -3
11 -3 24 0 30 4 7 91 9 248 8 l242 -3 3 -247z"/>
<path d="M2225 4545 c-946 -221 -1441 -1259 -1015 -2130 117 -240 291 -439
515 -590 98 -66 138 -108 174 -185 25 -53 26 -64 29 -257 l4 -202 -29 -14
c-35 -18 -65 -52 -87 -94 -24 -47 -22 -225 3 -271 17 -33 17 -35 -2 -73 -16
-32 -18 -56 -15 -147 3 -98 6 -112 30 -149 45 -69 89 -83 256 -83 l142 0 0
-107 c0 -124 12 -158 73 -207 l39 -31 218 0 218 0 39 31 c61 49 73 83 73 207
l0 107 142 0 c167 0 211 14 256 83 24 37 27 51 30 149 3 91 1 115 -15 147 -19
38 -19 40 -2 73 25 46 27 224 3 271 -21 42 -52 75 -86 93 l-28 15 0 172 c0
285 27 344 220 484 257 185 445 421 550 690 43 110 85 271 95 370 6 58 5 64
-19 88 -31 31 -70 32 -100 2 -16 -17 -26 -44 -35 -102 -59 -378 -254 -692
-573 -922 -137 -99 -185 -148 -228 -233 -47 -93 -60 -170 -60 -367 l0 -173
-479 0 -479 0 -4 208 c-4 180 -8 215 -26 266 -43 117 -102 187 -237 282 -365
253 -567 594 -605 1019 -10 111 2 298 26 404 86 381 335 711 679 901 125 69
303 129 433 146 62 8 112 43 112 79 0 12 -9 34 -21 49 -26 33 -75 34 -214 1z
m933 -3517 c7 -7 12 -43 12 -90 0 -75 -1 -79 -26 -88 -15 -6 -245 -10 -584
-10 -339 0 -569 4 -584 10 -25 9 -26 13 -26 88 0 47 5 83 12 90 17 17 1179 17
1196 0z m0 -350 c7 -7 12 -41 12 -83 0 -42 -5 -76 -12 -83 -17 -17 -1179 -17
-1196 0 -7 7 -12 41 -12 83 0 42 5 76 12 83 17 17 1179 17 1196 0z m-420 -425
l-3 -98 -175 0 -175 0 -3 98 -3 97 181 0 181 0 -3 -97z"/>
<path d="M1111 4514 c-39 -50 -30 -69 87 -186 89 -89 113 -108 138 -108 47 0
74 25 74 68 0 34 -9 47 -108 145 -91 91 -112 107 -139 107 -22 0 -38 -8 -52
-26z"/>
<path d="M559 3139 c-48 -18 -59 -79 -21 -121 13 -16 35 -18 173 -18 l158 0
20 26 c36 46 23 94 -30 113 -39 13 -264 13 -300 0z"/>
<path d="M4254 3136 c-49 -21 -58 -66 -23 -110 l20 -26 158 0 c138 0 160 2
173 18 39 44 27 103 -25 122 -44 15 -265 12 -303 -4z"/>
<path d="M1315 1920 c-11 -4 -66 -55 -122 -113 -110 -111 -120 -133 -84 -178
13 -16 29 -23 55 -23 33 0 46 10 136 99 55 55 103 111 108 125 11 31 0 63 -30
84 -25 18 -34 19 -63 6z"/>
<path d="M3742 1914 c-30 -21 -42 -52 -30 -84 5 -14 53 -70 108 -125 90 -89
103 -99 136 -99 26 0 42 7 55 23 37 45 27 67 -88 182 -60 60 -119 111 -133
114 -15 3 -34 -1 -48 -11z"/>
</g>
</svg>
