<?xml version="1.0" standalone="no"?>
<!DOCTYPE svg PUBLIC "-//W3C//DTD SVG 20010904//EN"
 "http://www.w3.org/TR/2001/REC-SVG-20010904/DTD/svg10.dtd">
<svg version="1.0" xmlns="http://www.w3.org/2000/svg"
 width="786.000000pt" height="258.000000pt" viewBox="0 0 786.000000 258.000000"
 preserveAspectRatio="xMidYMid meet">

<g transform="translate(0.000000,258.000000) scale(0.100000,-0.100000)"
fill="#000000" stroke="none">
<path d="M2864 2450 c-12 -5 -24 -13 -28 -18 -3 -5 -6 -164 -7 -355 0 -190 -3
-348 -6 -351 -3 -3 -24 17 -47 44 -78 94 -188 162 -311 195 -78 20 -234 20
-320 0 -181 -42 -356 -184 -439 -357 -24 -51 -50 -118 -57 -148 -18 -77 -16
-251 4 -330 57 -222 224 -403 444 -481 82 -30 265 -37 353 -15 105 26 218 88
299 162 39 36 72 64 72 62 1 -1 3 -46 5 -98 1 -52 3 -98 3 -102 1 -5 37 -8 81
-8 l80 0 -2 903 -3 902 -50 2 c-27 1 -60 -2 -71 -7z m-454 -631 c179 -28 334
-162 398 -342 35 -98 36 -259 3 -357 -70 -203 -244 -335 -460 -348 -137 -8
-245 28 -358 116 -59 47 -131 152 -162 237 -106 287 79 625 379 689 81 18 117
19 200 5z"/>
<path d="M6009 2430 c-9 -6 -12 -66 -13 -242 l-1 -233 -99 -3 c-55 -1 -106 -8
-113 -14 -8 -6 -13 -33 -13 -69 l0 -59 109 0 c104 0 109 -1 115 -22 3 -13 6
-268 6 -568 -1 -300 0 -551 0 -557 0 -9 23 -13 80 -13 l80 0 0 580 0 580 135
0 135 0 0 70 0 69 -132 3 -133 3 -5 240 -5 240 -67 1 c-36 1 -72 -2 -79 -6z"/>
<path d="M3646 1978 c-251 -23 -459 -192 -550 -447 -29 -80 -31 -95 -31 -226
0 -184 25 -272 115 -405 95 -140 230 -233 390 -266 105 -22 300 -14 390 16
116 39 220 111 297 205 40 49 93 132 93 147 0 11 -96 58 -119 58 -13 0 -39
-25 -75 -72 -81 -109 -152 -158 -285 -198 -62 -19 -89 -22 -177 -17 -93 4
-112 8 -180 41 -272 129 -368 474 -212 767 60 114 178 203 309 234 87 20 151
19 244 -5 127 -32 221 -96 286 -193 43 -65 49 -92 22 -100 -44 -12 -609 -229
-616 -236 -11 -11 39 -136 55 -135 20 2 762 285 773 295 14 14 -9 92 -56 188
-49 99 -159 218 -249 268 -120 68 -264 95 -424 81z"/>
<path d="M5115 1983 c-86 -6 -164 -26 -243 -64 -66 -32 -100 -57 -163 -120
l-79 -80 0 115 0 116 -69 0 c-46 0 -72 -4 -80 -14 -9 -10 -12 -240 -12 -887
l0 -874 81 -3 80 -3 0 346 c0 190 3 345 6 345 3 0 39 -31 79 -69 125 -116 266
-171 440 -171 110 0 196 20 295 67 110 52 242 187 298 304 69 142 89 310 57
464 -46 218 -236 430 -445 496 -69 22 -178 36 -245 32z m126 -167 c188 -40
344 -192 394 -381 72 -277 -92 -568 -364 -649 -115 -34 -268 -15 -385 47 -166
88 -266 261 -266 462 0 155 48 273 155 380 130 130 290 178 466 141z"/>
<path d="M6930 1978 c-294 -27 -547 -277 -588 -582 -16 -118 -5 -210 36 -331
66 -192 232 -355 422 -416 91 -30 261 -37 355 -15 106 25 206 79 290 157 40
38 76 69 79 69 3 0 6 -47 6 -105 l0 -105 80 0 80 0 0 650 0 650 -60 0 c-88 0
-100 -15 -100 -130 0 -49 -2 -90 -4 -90 -3 0 -38 33 -78 73 -141 138 -306 195
-518 175z m201 -162 c188 -40 349 -197 392 -382 82 -353 -154 -664 -503 -664
-176 0 -330 87 -430 242 -139 214 -109 482 74 663 131 130 291 178 467 141z"/>
<path d="M710 1964 c-236 -63 -430 -262 -486 -499 -23 -98 -15 -294 16 -385
66 -199 239 -371 435 -433 104 -33 300 -32 404 2 85 28 197 98 261 165 24 25
48 46 52 46 4 0 8 -47 8 -105 l0 -105 80 0 80 0 0 650 0 650 -68 0 c-40 0 -73
-5 -80 -12 -8 -8 -12 -47 -12 -110 0 -54 -2 -98 -5 -98 -3 0 -39 33 -79 74
-81 81 -173 133 -281 161 -75 19 -251 19 -325 -1z m293 -149 c187 -39 347
-198 392 -386 58 -248 -53 -500 -267 -603 -91 -43 -142 -55 -239 -56 -265 -1
-490 213 -515 490 -15 159 66 349 193 450 125 101 280 138 436 105z"/>
<path d="M898 387 c-5 -10 -8 -27 -8 -38 0 -11 -7 -19 -17 -19 -14 0 -15 -2
-4 -9 11 -7 12 -25 6 -86 -4 -51 -3 -75 3 -71 5 3 13 37 17 75 6 57 11 71 28
79 17 8 18 11 5 11 -12 1 -18 12 -20 39 -2 27 -5 32 -10 19z"/>
<path d="M2056 392 c-8 -13 74 -23 94 -12 12 8 11 9 -6 10 -12 0 -35 3 -52 6
-16 3 -32 2 -36 -4z"/>
<path d="M2924 375 c-14 -21 -14 -30 -4 -55 7 -17 21 -35 30 -40 9 -5 23 -23
30 -40 11 -27 10 -33 -5 -50 -23 -26 -39 -25 -65 2 -23 25 -36 19 -21 -11 16
-29 56 -37 86 -17 33 22 42 60 21 89 -74 100 -74 101 -43 121 12 8 21 6 35 -7
32 -29 47 -14 16 17 -24 24 -61 20 -80 -9z"/>
<path d="M3082 389 c2 -6 8 -10 13 -10 5 0 11 4 13 10 2 6 -4 11 -13 11 -9 0
-15 -5 -13 -11z"/>
<path d="M3328 387 c-5 -10 -8 -27 -8 -38 0 -11 -7 -19 -17 -19 -15 0 -15 -2
-4 -9 11 -7 13 -23 8 -68 -4 -33 -9 -68 -13 -78 -5 -13 -3 -16 7 -13 9 3 17
29 23 75 7 58 13 73 30 81 17 9 17 11 4 11 -12 1 -18 12 -20 39 -2 27 -5 32
-10 19z"/>
<path d="M488 370 c-18 -30 -90 -156 -107 -187 -21 -41 7 -25 31 17 22 38 25
40 71 40 47 0 49 -1 64 -40 16 -39 40 -58 29 -22 -4 10 -21 63 -39 117 -33 98
-34 99 -49 75z m30 -77 c13 -38 4 -47 -38 -38 l-30 7 21 40 c22 43 30 42 47
-9z"/>
<path d="M1272 330 c-12 -5 -28 -7 -36 -4 -9 4 -16 -11 -25 -52 -6 -32 -11
-70 -11 -86 0 -50 16 -29 26 34 7 50 14 65 37 82 22 16 31 18 45 9 14 -9 16
-23 14 -82 -3 -82 12 -96 21 -19 10 81 56 128 94 97 12 -11 14 -26 8 -81 -4
-41 -2 -68 3 -68 6 0 13 32 17 72 7 66 6 73 -14 89 -22 18 -35 17 -78 -3 -16
-8 -27 -7 -44 6 -26 18 -26 18 -57 6z"/>
<path d="M1582 325 c-57 -25 -75 -101 -34 -147 18 -21 91 -25 110 -6 9 9 12 9
12 0 0 -18 18 -14 24 6 2 9 8 49 12 87 5 55 4 67 -6 58 -9 -8 -20 -8 -46 3
-39 16 -31 17 -72 -1z m87 -31 c28 -36 26 -60 -8 -95 -35 -35 -66 -37 -98 -7
-31 29 -29 64 6 99 37 37 73 38 100 3z"/>
<path d="M1832 328 c-35 -9 -72 -57 -72 -94 0 -26 36 -74 56 -74 8 0 14 -4 14
-9 0 -5 3 -16 6 -24 3 -10 -2 -17 -13 -20 -11 -3 -8 -5 11 -6 25 -1 28 2 22
24 -5 19 -2 27 11 31 46 14 64 25 58 34 -4 6 -14 5 -28 -5 -31 -22 -70 -18
-95 8 -30 32 -28 63 7 98 33 32 65 37 99 13 24 -16 44 -12 26 6 -18 18 -68 27
-102 18z"/>
<path d="M2063 333 c-34 -7 -73 -59 -73 -99 0 -56 28 -75 104 -72 l63 3 11 80
c10 79 8 101 -7 77 -6 -10 -14 -9 -37 3 -16 8 -31 14 -34 14 -3 -1 -15 -4 -27
-6z m67 -33 c28 -28 26 -75 -5 -105 -46 -47 -115 -22 -115 41 0 68 76 108 120
64z"/>
<path d="M2293 329 c-61 -17 -90 -95 -53 -142 18 -22 29 -27 66 -27 60 0 94
32 94 88 0 67 -43 99 -107 81z m77 -36 c26 -33 20 -68 -16 -100 -34 -31 -68
-29 -94 4 -26 33 -20 68 16 101 34 30 68 28 94 -5z"/>
<path d="M2633 332 c-33 -5 -73 -58 -73 -96 0 -53 24 -76 79 -76 33 0 53 5 62
17 12 15 12 16 -6 9 -48 -18 -76 -18 -95 -1 -11 10 -20 26 -20 37 0 16 9 18
75 18 l75 0 0 28 c0 44 -43 73 -97 64z m59 -29 c35 -32 23 -43 -47 -43 -62 0
-65 1 -55 20 21 40 71 52 102 23z"/>
<path d="M3172 329 c-37 -14 -33 -54 9 -87 33 -26 36 -43 13 -63 -13 -10 -19
-10 -36 0 -21 13 -34 9 -23 -8 9 -15 68 -14 83 1 21 21 13 56 -18 80 -32 23
-39 55 -15 64 8 4 22 1 30 -6 12 -10 15 -10 15 3 0 19 -29 27 -58 16z"/>
<path d="M3472 328 c-37 -10 -72 -58 -72 -99 0 -37 38 -69 84 -69 42 0 80 16
71 31 -4 5 -15 3 -28 -6 -30 -21 -63 -19 -87 5 -40 40 -27 50 60 50 86 0 90 3
71 53 -12 31 -56 47 -99 35z m66 -24 c42 -29 28 -44 -43 -44 -36 0 -65 3 -65
8 1 21 42 51 70 52 9 0 26 -7 38 -16z"/>
<path d="M3701 328 c-14 -5 -31 -6 -38 -4 -7 3 -15 -4 -17 -17 -12 -64 -23
-142 -21 -146 10 -9 25 14 25 37 0 57 19 99 50 112 47 19 64 0 56 -66 -3 -29
-9 -60 -13 -70 -4 -12 -2 -15 8 -12 8 3 17 27 22 58 18 125 118 140 102 15 -7
-63 -7 -65 3 -65 10 -1 23 99 17 128 -8 32 -42 43 -84 26 -19 -8 -38 -11 -45
-6 -21 16 -41 19 -65 10z"/>
<path d="M4012 325 c-32 -14 -62 -59 -62 -93 0 -11 9 -31 21 -46 19 -24 26
-26 85 -24 71 2 67 -4 80 113 6 52 5 58 -8 48 -8 -7 -17 -10 -20 -8 -16 17
-67 22 -96 10z m86 -29 c54 -69 -47 -167 -108 -106 -11 11 -20 29 -20 40 0 74
86 119 128 66z"/>
<path d="M4223 329 c-33 -12 -29 -49 7 -84 34 -32 37 -47 14 -66 -13 -10 -19
-10 -36 0 -21 13 -34 9 -23 -8 9 -15 68 -14 83 1 21 21 13 56 -18 80 -32 23
-39 55 -15 64 8 4 22 1 29 -5 9 -8 16 -8 20 -2 11 18 -31 31 -61 20z"/>
<path d="M657 268 c-8 -85 8 -110 66 -106 34 2 44 8 54 29 17 36 29 144 15
135 -6 -3 -14 -32 -17 -64 -11 -83 -49 -116 -90 -76 -13 14 -15 28 -9 80 4 40
3 64 -3 64 -6 0 -13 -28 -16 -62z"/>
<path d="M1005 308 c-36 -32 -43 -85 -15 -121 17 -22 29 -27 63 -27 62 1 97
36 97 99 0 67 -89 97 -145 49z m103 -4 c49 -34 10 -134 -53 -134 -51 0 -84 69
-52 111 30 38 70 48 105 23z"/>
<path d="M3071 280 c-14 -63 -15 -128 -2 -114 10 10 27 164 18 164 -3 0 -10
-23 -16 -50z"/>
</g>
</svg>
